<?xml version="1.0" standalone="no"?>
<!DOCTYPE svg PUBLIC "-//W3C//DTD SVG 20010904//EN"
 "http://www.w3.org/TR/2001/REC-SVG-20010904/DTD/svg10.dtd">
<svg version="1.0" xmlns="http://www.w3.org/2000/svg"
 width="300.000000pt" height="212.000000pt" viewBox="0 0 300.000000 212.000000"
 preserveAspectRatio="xMidYMid meet">
<metadata>
Created by potrace 1.10, written by Peter Selinger 2001-2011
</metadata>
<g transform="translate(0.000000,212.000000) scale(0.100000,-0.100000)"
fill="#000000" stroke="none">
<path d="M1280 1913 c-19 -8 -56 -37 -82 -65 -27 -28 -50 -49 -53 -46 -3 2 3
23 12 47 21 54 9 67 -37 42 -49 -25 -100 -95 -100 -135 0 -23 -9 -41 -30 -61
-16 -16 -30 -26 -30 -23 0 3 5 30 10 59 6 30 8 67 4 83 l-6 29 -27 -33 c-66
-83 -81 -112 -81 -160 0 -25 5 -51 11 -57 7 -7 3 -21 -13 -46 -27 -42 -37 -47
-31 -12 3 13 -5 57 -17 97 l-23 73 -24 -75 c-29 -90 -32 -160 -8 -196 15 -23
16 -32 5 -65 l-13 -39 -32 63 c-44 85 -60 86 -69 2 -8 -77 6 -134 40 -166 18
-17 24 -33 24 -68 l0 -45 -25 35 c-25 34 -104 108 -116 109 -13 0 42 -183 61
-208 11 -14 35 -35 52 -47 20 -14 35 -36 44 -63 6 -23 10 -42 8 -42 -2 0 -23
15 -47 33 -47 36 -104 63 -113 54 -3 -3 11 -37 31 -76 39 -75 89 -121 152
-142 18 -6 33 -14 33 -18 0 -5 11 -25 25 -45 13 -20 20 -36 15 -36 -5 0 -12 4
-15 10 -8 13 -89 48 -130 56 -54 10 -45 -21 25 -87 60 -58 124 -89 183 -89 20
0 43 -12 70 -37 34 -30 37 -35 16 -29 -60 17 -177 29 -214 21 l-40 -7 39 -14
c22 -8 47 -21 56 -29 8 -8 42 -26 74 -41 52 -24 67 -26 136 -21 69 4 84 2 127
-19 l48 -23 -56 -1 c-86 0 -171 -20 -167 -38 8 -41 227 -55 297 -19 24 12 45
15 69 11 l34 -7 -47 -27 c-26 -15 -65 -33 -86 -40 -22 -8 -39 -20 -39 -28 0
-12 13 -14 78 -9 88 7 152 27 198 62 18 14 45 25 59 25 14 0 41 -11 59 -25 46
-35 106 -54 197 -61 112 -10 108 11 -12 62 l-92 39 41 9 c33 7 49 5 84 -13 52
-25 154 -28 233 -8 77 20 71 41 -14 55 -38 7 -89 12 -113 12 l-43 1 45 23 c39
21 54 23 125 19 73 -5 86 -3 145 24 36 16 88 45 115 63 l50 32 -101 -6 c-56
-3 -121 -13 -145 -21 l-44 -15 49 44 c28 24 56 42 63 39 24 -9 112 19 156 50
40 29 134 134 125 142 -7 6 -174 -56 -200 -75 -15 -11 -28 -18 -28 -16 0 14
65 98 79 103 61 19 95 41 125 82 30 41 86 142 86 156 0 11 -117 -59 -148 -88
l-33 -32 7 45 c3 25 13 50 21 55 9 6 29 19 47 30 39 26 60 68 85 175 l19 85
-76 -81 -77 -80 -2 44 c-1 38 3 48 27 69 38 31 54 109 45 205 l-7 70 -44 -73
c-24 -41 -44 -83 -44 -94 -1 -11 -9 1 -20 29 -16 42 -17 51 -5 60 39 31 37
145 -4 223 l-19 38 -18 -40 c-9 -22 -17 -64 -18 -93 l-1 -54 -19 25 c-14 19
-19 44 -20 104 -1 70 -4 82 -33 123 -17 25 -43 56 -58 70 l-27 25 7 -70 c6
-64 27 -125 41 -125 3 0 3 23 -1 50 -8 58 3 64 28 14 15 -31 25 -124 12 -124
-2 0 -19 9 -37 20 -18 11 -41 20 -50 20 -9 0 -29 5 -44 10 -26 10 -26 12 -11
27 15 16 18 15 39 -4 13 -11 31 -23 41 -26 14 -5 16 -3 8 11 -5 9 -23 30 -40
46 -23 22 -31 39 -31 63 0 42 -21 75 -73 113 -43 32 -77 39 -77 17 0 -8 11
-35 24 -60 l23 -47 -28 17 c-15 10 -38 34 -51 53 -25 38 -76 68 -132 77 -28 4
-36 2 -36 -10 0 -27 71 -85 131 -107 72 -26 83 -40 31 -40 -49 0 -102 -18
-102 -35 0 -13 89 -25 186 -25 27 0 58 -6 67 -13 15 -10 8 -12 -44 -12 -35 0
-64 -5 -66 -11 -4 -11 107 -57 175 -73 39 -8 88 -38 79 -48 -2 -2 -24 6 -48
17 -47 21 -89 26 -89 11 0 -12 138 -116 183 -137 19 -9 38 -24 41 -33 3 -9 9
-22 12 -28 3 -7 -18 3 -46 22 -55 37 -65 41 -75 25 -8 -12 76 -120 125 -162
27 -22 42 -44 47 -68 l6 -35 -32 38 c-36 40 -89 82 -97 75 -5 -6 28 -101 52
-148 9 -19 30 -51 46 -70 28 -34 34 -62 22 -95 -5 -13 -10 -8 -19 19 -17 49
-57 106 -74 106 -24 0 -10 -154 20 -220 25 -53 25 -56 9 -92 -24 -54 -26 -54
-28 0 -1 52 -22 124 -37 129 -15 5 -49 -189 -42 -241 6 -38 3 -50 -16 -72
l-23 -26 4 67 c3 45 0 70 -8 78 -10 9 -14 9 -17 -1 -3 -7 -20 -35 -40 -63 -23
-34 -38 -71 -45 -112 -8 -41 -18 -68 -32 -79 -33 -28 -35 -22 -11 44 43 119
43 119 -50 28 -48 -47 -94 -100 -101 -118 -9 -21 -27 -38 -47 -47 -38 -16 -49
-10 -20 10 23 16 63 75 63 93 0 5 -28 -1 -62 -15 -95 -37 -109 -45 -132 -80
-18 -27 -28 -32 -68 -35 -40 -3 -49 0 -57 18 -18 40 -83 78 -180 105 -29 8
-21 -31 15 -70 20 -23 34 -41 32 -41 -29 0 -68 26 -77 51 -12 35 -138 169
-158 169 -18 0 -10 -47 17 -103 10 -21 15 -37 11 -35 -3 2 -18 10 -32 17 -22
11 -27 22 -32 67 -5 52 -41 129 -97 209 l-21 30 3 -98 4 -97 -22 27 c-20 24
-22 36 -17 85 8 75 -24 230 -46 226 -18 -4 -45 -121 -36 -155 9 -38 -5 -26
-26 22 l-20 46 25 52 c28 57 43 163 32 222 l-7 36 -23 -43 c-12 -24 -30 -56
-39 -73 -9 -16 -17 -40 -17 -52 0 -43 -18 -32 -23 14 -4 42 -2 51 28 88 39 48
51 71 75 138 10 29 21 60 25 71 19 45 -93 -44 -123 -99 -15 -26 -15 -2 -2 45
7 23 24 44 49 62 34 23 170 188 155 188 -15 0 -113 -56 -136 -78 -16 -14 -28
-22 -28 -16 1 25 33 62 73 84 25 14 73 44 106 68 95 67 74 92 -33 41 -49 -23
-56 -18 -23 15 16 16 37 26 54 26 36 -1 194 62 189 75 -1 6 -33 10 -69 9 -37
0 -67 1 -67 2 0 2 12 10 28 17 18 10 46 13 84 10 31 -3 82 -2 113 2 44 5 56
10 53 23 -4 20 -37 30 -108 31 l-55 2 35 18 c19 10 49 21 65 25 35 8 125 81
125 102 0 18 -44 17 -90 -3z m566 -54 c10 -17 -24 -9 -47 11 l-24 20 33 -11
c17 -6 35 -15 38 -20z m-562 6 c-10 -8 -26 -14 -34 -14 -11 0 -10 3 4 14 11 8
27 15 35 15 11 0 10 -4 -5 -15z m-160 -35 c-4 -19 -1 -38 10 -55 22 -33 21
-35 -13 -29 -16 3 -38 1 -50 -5 -19 -11 -21 -9 -21 18 0 21 11 41 35 66 20 19
38 35 40 35 3 0 2 -13 -1 -30z m882 -6 c21 -23 34 -47 34 -63 0 -25 -2 -26
-52 -23 -51 4 -94 22 -51 22 40 0 50 29 28 83 -11 27 3 20 41 -19z m-1051
-164 c10 -9 19 -9 35 0 12 6 28 9 36 6 26 -10 14 -25 -23 -31 -21 -3 -52 -12
-69 -20 -18 -7 -35 -11 -38 -8 -15 15 -5 87 17 116 l22 32 3 -42 c2 -23 9 -47
17 -53z m1365 -136 c0 -36 -6 -68 -14 -80 -14 -19 -15 -19 -38 2 -13 12 -36
29 -53 37 -60 32 -62 35 -41 50 17 12 22 10 52 -22 33 -35 35 -35 49 -17 8 11
15 34 15 52 0 18 3 40 6 49 12 30 24 -6 24 -71z m-1520 25 c0 -14 6 -34 14
-45 14 -19 15 -19 40 5 21 20 30 22 48 14 23 -10 23 -11 -11 -29 -18 -11 -48
-29 -66 -41 -43 -28 -55 -15 -55 58 0 68 8 98 21 77 5 -7 9 -25 9 -39z m-94
-194 c19 -46 41 -55 64 -25 10 13 22 20 29 16 7 -4 23 0 36 8 45 30 26 2 -42
-61 -73 -69 -83 -69 -110 -6 -16 38 -17 103 -2 103 5 0 17 -16 25 -35z m1704
-20 c0 -46 -4 -60 -29 -87 -29 -32 -30 -32 -38 -12 -4 12 -32 43 -60 69 -29
26 -53 51 -53 57 0 6 7 5 16 -3 12 -10 20 -10 33 -2 15 10 21 6 34 -23 9 -19
23 -34 30 -34 8 0 24 20 37 45 13 25 25 45 27 45 1 0 3 -25 3 -55z m-1593
-176 c-8 -19 -30 -55 -51 -82 -20 -26 -36 -52 -36 -58 0 -18 -61 25 -81 57
-20 33 -36 94 -25 94 4 0 20 -16 37 -35 33 -37 56 -44 65 -20 4 8 14 15 25 15
10 0 30 16 45 35 32 42 40 40 21 -6z m1516 -3 c12 4 17 1 17 -13 0 -11 6 -28
14 -39 14 -18 16 -17 60 26 37 35 46 40 46 25 -1 -38 -39 -105 -71 -124 l-32
-20 -31 46 c-39 57 -76 123 -76 136 0 6 13 -1 28 -16 19 -18 35 -25 45 -21z
m-53 -181 c11 -25 24 -45 30 -45 5 0 10 -8 10 -18 0 -11 8 -26 18 -35 18 -16
21 -15 66 19 25 21 49 35 51 32 3 -2 -9 -25 -25 -50 -40 -61 -130 -104 -130
-63 0 9 -9 34 -21 57 -20 39 -39 148 -25 148 4 0 15 -20 26 -45z m-1477 -115
c-15 -33 -33 -60 -39 -60 -25 0 -102 62 -123 101 -25 44 -20 44 36 3 37 -28
41 -29 81 -9 21 11 35 28 43 53 18 58 24 60 27 14 2 -31 -5 -59 -25 -102z
m106 -136 c1 -23 -2 -62 -5 -88 -7 -51 -14 -54 -76 -32 -39 14 -122 75 -114
84 3 2 30 -6 61 -18 31 -12 57 -21 59 -19 14 19 46 94 46 108 0 11 3 28 7 38
6 16 8 15 14 -7 4 -14 7 -43 8 -66z m1320 -7 c6 -6 7 -17 1 -27 -6 -12 -5 -23
4 -36 12 -16 16 -17 37 -3 37 24 119 50 113 36 -13 -36 -168 -108 -194 -92
-11 7 -13 120 -3 180 l7 40 13 -44 c7 -25 17 -49 22 -54z m-1179 -155 c5 -20
10 -48 10 -62 0 -14 4 -32 10 -40 24 -38 -90 -42 -165 -6 -53 26 -42 31 35 16
35 -7 48 -5 60 6 13 13 13 18 -2 44 -10 17 -13 32 -7 35 5 4 9 25 9 48 l1 42
19 -23 c11 -13 24 -40 30 -60z m1052 -9 c7 -9 7 -13 0 -13 -5 0 -17 -11 -25
-24 -13 -20 -14 -27 -3 -41 12 -17 18 -17 75 -5 34 7 64 10 68 7 13 -13 -83
-47 -134 -47 -73 0 -86 6 -69 33 8 12 17 42 20 67 4 24 17 60 29 80 l22 35 3
-40 c2 -22 8 -45 14 -52z m-846 -165 c13 -26 24 -50 24 -52 0 -3 -17 -10 -37
-15 -49 -14 -163 -14 -163 -1 0 6 3 9 8 9 38 -6 103 4 118 18 15 16 15 18 -12
43 -23 20 -29 36 -31 70 l-2 43 35 -34 c20 -19 47 -55 60 -81z m670 67 c-1
-36 -5 -46 -24 -54 -51 -24 -34 -71 27 -71 20 0 43 -5 51 -10 25 -16 -96 -12
-135 4 -19 8 -35 17 -35 18 0 16 47 89 77 120 20 21 38 38 38 38 1 0 1 -20 1
-45z m-504 -71 c14 -8 37 -28 49 -45 22 -31 22 -32 3 -46 -26 -20 -102 -53
-122 -53 -12 0 -6 9 17 30 32 30 32 32 16 50 -9 10 -14 23 -11 29 4 6 -1 22
-11 37 -17 27 -17 27 7 19 14 -4 37 -14 52 -21z m303 9 c-4 -10 -8 -25 -8 -33
0 -8 -10 -22 -21 -32 -17 -13 -19 -20 -10 -35 6 -10 20 -22 32 -28 31 -14 27
-27 -5 -19 -33 8 -113 52 -113 62 0 5 17 24 38 44 57 54 101 75 87 41z"/>
<path d="M1508 1654 c-58 -18 -146 -96 -179 -159 l-24 -46 -153 3 c-139 3
-152 2 -152 -14 0 -13 8 -18 29 -18 16 0 38 -8 49 -17 20 -17 21 -30 24 -291
3 -261 2 -274 -16 -288 -11 -8 -35 -14 -54 -14 -26 0 -33 -4 -30 -17 3 -17 22
-18 233 -17 181 1 239 5 275 17 24 9 45 15 45 14 0 -1 13 -21 28 -45 71 -110
224 -159 366 -116 81 24 187 128 161 159 -10 12 -20 6 -61 -40 -59 -64 -96
-79 -189 -73 -88 5 -138 36 -174 110 -27 55 -43 157 -32 201 5 21 14 26 68 36
33 6 81 18 105 27 l43 17 0 73 c0 70 1 74 23 74 64 -1 143 -66 168 -138 6 -18
18 -32 26 -32 14 0 15 11 9 77 -3 42 -6 91 -6 110 0 26 -4 33 -19 33 -10 0
-21 -9 -24 -20 -6 -24 -27 -25 -66 -5 -16 8 -47 17 -70 21 -43 7 -50 19 -31
55 6 11 21 19 35 19 18 0 25 5 25 20 0 19 -7 20 -130 20 -123 0 -130 -1 -130
-20 0 -16 7 -20 35 -20 36 0 39 -3 49 -51 5 -24 1 -28 -42 -44 -50 -20 -152
-113 -152 -139 0 -19 -2 -19 -35 -4 l-25 11 30 19 c50 30 72 75 67 136 -6 81
-66 145 -149 158 -34 6 -38 9 -32 28 20 64 67 120 119 142 43 18 136 18 178 0
38 -15 94 -76 103 -110 3 -13 15 -26 25 -29 19 -5 20 -2 14 51 -16 153 -16
152 -37 152 -10 0 -17 -4 -14 -8 2 -4 2 -13 -2 -19 -5 -8 -23 -6 -62 7 -66 23
-175 25 -242 4z m322 -71 c0 -26 0 -26 -20 -8 -16 14 -17 20 -8 27 22 13 28 9
28 -19z m-377 -16 c-43 -49 -59 -93 -46 -128 9 -22 8 -31 -3 -40 -33 -27 -2
-198 41 -224 27 -17 65 36 65 91 0 51 -10 76 -49 118 l-26 28 25 -7 c39 -12
86 -43 104 -70 9 -13 16 -44 16 -69 0 -39 -5 -51 -44 -92 -43 -45 -44 -48 -29
-70 8 -13 19 -24 23 -24 5 0 15 -3 23 -6 9 -3 27 12 50 44 20 27 54 61 76 75
l39 26 -35 -52 c-25 -37 -33 -59 -31 -79 3 -16 -1 -33 -9 -39 -20 -18 -17
-173 5 -229 27 -70 40 -88 85 -121 31 -23 36 -29 17 -24 -52 16 -100 46 -127
81 -72 93 -64 88 -113 71 -46 -15 -68 -13 -38 4 55 31 76 144 38 207 -22 35
-69 68 -112 78 -22 4 -27 10 -23 24 3 11 -6 41 -21 71 -21 39 -29 73 -34 133
-6 81 -6 81 31 137 38 56 101 119 120 119 6 0 -2 -15 -18 -33z m-261 -278 c-3
-109 -1 -134 12 -148 15 -16 15 -19 1 -31 -12 -10 -15 -38 -15 -137 0 -68 5
-133 10 -144 10 -17 7 -19 -32 -19 l-43 0 3 285 c2 190 -1 291 -8 305 -10 19
-8 20 32 20 l43 0 -3 -131z m101 76 c-7 -56 11 -129 43 -177 l24 -38 -70 0
-70 0 0 124 0 125 33 4 c17 2 35 5 38 5 4 1 4 -18 2 -43z m161 -16 c14 -17 29
-41 32 -54 6 -25 -11 -91 -26 -100 -10 -6 -38 74 -46 138 -8 56 3 60 40 16z
m399 -51 c3 -29 1 -57 -4 -62 -5 -6 -9 -38 -9 -72 0 -59 -1 -63 -28 -72 l-28
-10 4 55 c3 34 0 64 -8 78 -11 20 -11 27 0 40 8 9 11 30 7 55 -5 40 -5 40 28
40 32 0 33 -1 38 -52z m207 -105 c0 -26 0 -26 -20 -8 -16 14 -17 20 -8 27 22
13 28 9 28 -19z m-293 -77 c-5 -13 -86 -41 -94 -32 -9 8 45 94 70 111 22 15
22 15 25 -26 2 -23 1 -47 -1 -53z m-371 -31 c63 -18 104 -60 111 -112 12 -90
-55 -142 -184 -143 -109 0 -103 -8 -103 141 l0 129 63 0 c35 0 86 -7 113 -15z"/>
</g>
</svg>
