
<?xml version="1.0" standalone="no"?>
<!DOCTYPE svg PUBLIC "-//W3C//DTD SVG 20010904//EN"
 "http://www.w3.org/TR/2001/REC-SVG-20010904/DTD/svg10.dtd">
<svg version="1.0" xmlns="http://www.w3.org/2000/svg"
 width="594.000000pt" height="420.000000pt" viewBox="0 0 594.000000 420.000000"
 preserveAspectRatio="xMidYMid meet">

<g transform="translate(0.000000,420.000000) scale(0.100000,-0.100000)"
fill="#000000" stroke="none">
<path d="M2551 3795 c-98 -39 -128 -59 -158 -106 -45 -69 -55 -80 -95 -100
-38 -19 -40 -20 -33 -2 30 72 54 154 49 167 -16 42 -112 1 -196 -86 -72 -73
-97 -122 -105 -203 -5 -58 -9 -66 -42 -93 -64 -51 -65 -51 -56 4 17 110 21
181 12 217 -5 20 -13 37 -18 37 -12 0 -140 -163 -173 -221 -46 -81 -48 -199
-4 -261 10 -14 8 -22 -13 -45 -15 -15 -38 -46 -53 -68 l-26 -40 0 63 c0 46
-11 96 -41 187 -22 69 -42 125 -44 125 -5 0 -68 -205 -84 -272 -24 -101 -11
-210 32 -271 22 -33 20 -67 -11 -137 l-20 -45 -12 31 c-11 31 -15 39 -79 147
-36 62 -66 86 -84 68 -13 -13 -29 -212 -22 -277 8 -72 54 -163 98 -197 37 -28
37 -29 37 -102 0 -41 -4 -76 -8 -79 -4 -3 -24 16 -43 41 -43 58 -93 108 -169
168 -47 36 -60 42 -60 28 0 -26 47 -229 66 -285 23 -70 92 -159 155 -198 30
-19 56 -35 58 -37 5 -4 41 -156 37 -160 -2 -2 -26 15 -54 37 -63 50 -205 130
-232 130 -29 0 -25 -29 14 -115 77 -167 178 -268 318 -318 60 -22 61 -23 104
-105 43 -82 43 -82 14 -62 -16 11 -48 27 -71 35 -23 9 -47 20 -54 25 -16 13
-123 40 -162 40 -30 0 -33 -3 -33 -30 0 -24 18 -47 101 -129 60 -59 124 -111
157 -129 79 -42 166 -65 220 -59 43 5 47 3 106 -50 112 -102 107 -94 45 -78
-145 39 -369 53 -440 26 -19 -6 -14 -11 37 -31 32 -13 74 -36 92 -52 43 -37
133 -82 229 -114 90 -30 205 -35 289 -11 l52 15 91 -47 91 -46 -92 -6 c-97 -7
-261 -33 -303 -49 -27 -10 -33 -41 -12 -58 6 -5 53 -20 102 -33 75 -20 114
-24 235 -23 156 0 198 9 272 60 l36 25 62 -19 61 -18 -58 -36 c-32 -20 -103
-56 -158 -80 -78 -35 -101 -49 -103 -66 -2 -13 3 -25 13 -28 19 -8 254 13 310
28 62 16 179 72 230 112 83 63 129 60 234 -17 98 -72 181 -97 386 -116 108 -9
145 -2 145 27 0 14 -34 34 -142 85 -79 36 -155 69 -171 73 -48 11 -38 21 41
38 l78 17 58 -35 c32 -19 83 -40 114 -47 144 -30 470 19 479 72 6 34 -17 42
-178 65 -90 13 -184 24 -209 25 l-45 0 41 19 c23 10 61 30 85 45 l43 28 81
-14 c166 -28 250 -13 435 80 79 39 230 137 230 148 0 3 -73 3 -162 0 -128 -5
-184 -12 -261 -32 -53 -14 -100 -25 -102 -25 -3 0 32 34 77 76 78 71 85 75
119 70 114 -18 275 54 403 179 44 44 157 187 151 193 -11 11 -259 -67 -340
-107 -72 -35 -91 -41 -80 -26 8 11 31 50 51 87 33 61 40 69 78 78 126 32 173
64 256 175 50 66 160 264 160 287 0 11 -122 -42 -184 -80 -32 -20 -85 -62
-118 -92 l-60 -55 7 35 c30 160 26 151 80 179 140 73 180 139 234 397 12 55
24 110 27 124 4 19 -21 -1 -101 -80 -59 -58 -125 -127 -146 -153 -34 -43 -39
-46 -40 -25 0 12 -3 53 -7 90 -8 67 -8 67 19 78 95 40 140 206 120 439 -6 63
-12 116 -14 118 -5 4 -87 -119 -87 -130 0 -4 -15 -30 -33 -59 -34 -54 -53 -97
-59 -133 -3 -13 -10 -1 -22 35 -10 30 -27 72 -37 92 -23 46 -23 45 0 51 58 15
89 190 56 317 -17 69 -73 200 -85 200 -4 0 -21 -35 -38 -78 -35 -88 -56 -200
-47 -244 4 -15 5 -28 2 -28 -2 0 -26 33 -52 73 -27 39 -41 66 -33 59 14 -11
16 -1 20 85 6 125 -4 167 -54 244 -42 66 -157 199 -172 199 -13 0 4 -196 23
-272 10 -38 16 -68 13 -68 -2 0 -30 25 -63 57 l-59 56 0 64 c0 36 -6 76 -14
91 -22 42 -156 165 -203 186 -82 36 -95 -6 -39 -128 19 -42 32 -76 28 -76 -4
0 -29 15 -56 33 -33 21 -58 49 -75 80 -42 78 -122 126 -264 158 -50 11 -60 10
-68 -2 -12 -20 -12 -21 20 -70 43 -64 129 -126 214 -155 39 -13 91 -37 115
-53 l43 -28 -83 -5 c-46 -3 -108 -14 -138 -24 -48 -17 -55 -22 -52 -43 1 -14
3 -26 5 -27 7 -6 262 -24 351 -24 96 0 107 -2 133 -24 l28 -24 -109 5 c-86 5
-110 3 -117 -8 -20 -31 -9 -47 49 -69 31 -12 87 -35 124 -51 37 -16 107 -36
155 -46 76 -14 92 -21 121 -51 18 -19 31 -36 29 -38 -1 -2 -30 8 -62 21 -126
51 -185 56 -185 18 0 -30 295 -246 376 -275 32 -11 36 -17 72 -107 3 -8 -21 4
-54 26 -64 43 -137 83 -153 83 -6 0 -15 -8 -20 -19 -19 -35 178 -279 281 -348
27 -18 38 -34 42 -61 4 -20 9 -50 12 -66 5 -24 -4 -18 -67 49 -77 81 -169 140
-169 109 0 -86 116 -340 193 -422 l49 -53 -7 -62 c-6 -61 -24 -113 -25 -75 0
28 -46 123 -92 194 -73 110 -104 75 -93 -106 8 -125 27 -205 70 -290 19 -38
35 -77 35 -87 0 -10 -14 -47 -32 -83 l-31 -65 -12 91 c-17 124 -33 189 -56
218 -27 35 -47 23 -55 -32 -3 -26 -17 -96 -29 -157 -34 -162 -38 -205 -24
-274 9 -47 9 -67 0 -90 -15 -34 -88 -108 -77 -76 5 11 10 74 13 141 l6 121
-28 7 c-15 4 -29 6 -30 4 -1 -2 -15 -28 -30 -58 -15 -30 -41 -71 -58 -90 -47
-53 -75 -126 -87 -224 -6 -49 -14 -96 -19 -103 -9 -16 -93 -74 -99 -68 -2 2 7
32 21 67 28 69 80 248 74 254 -2 2 -80 -72 -174 -164 -118 -115 -174 -177
-179 -197 -17 -74 -48 -104 -123 -120 l-34 -7 59 70 c57 67 109 170 81 160
-273 -99 -280 -103 -333 -151 -29 -26 -63 -64 -74 -83 l-22 -34 -89 0 -89 0
-20 40 c-33 66 -119 125 -240 166 -146 49 -149 49 -156 29 -10 -25 20 -80 78
-141 28 -30 49 -56 47 -59 -3 -2 -31 4 -63 13 -55 16 -60 20 -71 57 -19 65
-56 113 -187 243 -118 117 -124 121 -145 107 l-21 -15 24 -80 c14 -44 34 -101
44 -125 11 -25 16 -45 12 -45 -4 0 -30 15 -57 33 l-50 32 -7 70 c-4 38 -12 89
-18 113 -12 49 -64 157 -80 167 -5 3 -21 30 -35 58 -14 29 -44 77 -66 107
l-41 55 5 -184 5 -185 -45 48 c-49 52 -48 41 -23 161 14 64 7 117 -38 298 -35
144 -37 148 -61 145 -22 -3 -27 -11 -43 -83 -10 -44 -22 -120 -26 -170 l-8
-90 -42 82 c-48 93 -49 103 -23 127 71 65 128 395 90 530 -12 44 -19 40 -43
-24 -10 -25 -28 -58 -40 -75 -36 -46 -68 -114 -87 -180 l-16 -60 -11 40 c-6
22 -14 60 -17 85 -6 44 -5 47 61 130 37 47 82 117 99 155 38 83 99 264 92 272
-3 3 -22 0 -41 -7 -38 -12 -165 -140 -192 -193 -23 -44 -27 -26 -14 54 13 79
32 104 102 140 20 10 62 50 94 88 63 77 214 284 209 289 -6 7 -195 -88 -225
-114 -41 -35 -90 -67 -90 -59 0 4 10 28 21 56 23 52 54 77 122 99 22 7 62 31
90 54 29 23 75 57 102 75 125 85 145 103 133 125 -6 12 -12 22 -13 23 -5 7
-153 -41 -196 -62 -61 -31 -63 -31 -44 4 22 44 63 68 130 76 33 4 87 17 120
30 100 38 240 96 247 104 4 3 5 17 1 30 l-6 24 -119 -6 c-100 -5 -118 -4 -108
8 30 36 71 43 220 38 153 -6 274 6 297 30 40 39 -49 77 -207 86 l-95 6 45 27
c25 14 77 36 117 47 124 37 268 151 261 209 -5 40 -53 40 -157 -3z"/>
<path d="M3032 3290 c-111 -30 -187 -75 -277 -165 -60 -59 -92 -101 -123 -162
l-43 -83 -305 0 -304 0 0 -34 0 -34 65 -4 c74 -5 114 -28 127 -73 4 -16 9
-263 10 -548 l3 -519 -33 -29 c-29 -26 -40 -29 -98 -29 l-65 0 3 -37 3 -38
410 1 c434 1 515 7 615 47 l56 23 34 -60 c47 -81 151 -183 227 -224 91 -48
197 -72 317 -72 191 0 305 46 426 169 41 42 85 95 98 118 l23 42 -27 18 c-26
17 -27 17 -51 -13 -57 -68 -141 -148 -178 -170 -161 -94 -412 -60 -541 72
-104 107 -155 318 -126 514 l7 45 83 7 c93 8 164 26 270 70 l72 30 0 144 c0
165 -6 157 98 130 137 -37 211 -115 290 -308 8 -20 19 -28 37 -28 23 0 25 4
25 43 0 23 -7 121 -15 217 -8 96 -15 178 -15 183 0 4 -13 7 -29 7 -24 0 -33
-7 -48 -37 -23 -49 -48 -52 -125 -18 -33 15 -96 34 -139 43 l-79 15 0 44 c0
59 32 93 90 93 39 0 40 1 40 35 l0 35 -255 0 -255 0 0 -35 c0 -35 0 -35 45
-35 51 0 99 -20 109 -45 12 -32 7 -125 -7 -125 -25 0 -161 -72 -211 -111 -56
-45 -124 -123 -152 -175 -10 -19 -21 -34 -25 -34 -15 0 -79 31 -79 38 0 4 23
22 51 40 114 75 159 222 107 359 -39 106 -158 197 -295 226 -53 11 -54 12 -49
41 11 55 71 160 118 207 139 139 396 155 549 34 49 -38 109 -125 129 -185 12
-36 16 -40 47 -40 25 0 33 4 32 18 0 9 -8 98 -17 197 l-17 180 -33 3 c-29 3
-33 0 -39 -28 -3 -18 -12 -34 -19 -37 -7 -2 -57 10 -111 28 -87 29 -113 33
-228 36 -105 2 -144 -1 -203 -17z m-475 -570 c-8 -68 6 -181 29 -251 8 -26 33
-76 54 -112 22 -36 40 -69 40 -72 0 -12 -248 -1 -260 11 -7 7 -9 87 -8 240 l3
229 30 6 c17 4 50 7 74 8 l44 1 -6 -60z m305 -27 c53 -49 78 -103 78 -175 0
-56 -32 -148 -53 -148 -13 0 -58 109 -73 180 -16 76 -18 180 -4 180 5 0 29
-17 52 -37z m636 -400 l-3 -98 -55 -21 c-73 -29 -130 -39 -130 -23 0 34 68
144 117 189 30 28 59 50 64 50 6 0 9 -40 7 -97z m-841 -123 c111 -12 186 -38
242 -86 74 -64 106 -162 81 -254 -16 -62 -97 -141 -171 -166 -59 -20 -251 -26
-341 -11 l-48 8 0 254 0 254 58 4 c31 2 64 4 72 5 8 1 56 -3 107 -8z"/>
</g>
</svg>
