<svg version="1" xmlns="http://www.w3.org/2000/svg" width="1504" height="1504" viewBox="0 0 1128.000000 1128.000000"><path d="M443.6 71.7c-.2.2-2 .6-4 .9-2 .2-5.7 1.1-8.3 2-2.7.9-5.2 1.8-5.8 1.9-1.2.2-2.7.8-12 4.6-3.8 1.6-7.5 2.9-8.2 2.9-.7 0-1.3.4-1.3 1 0 .5-.6 1-1.4 1-1.4 0-10.5 4.7-17.1 8.8-4.7 2.9-11.6 10-15.3 15.7-1.5 2.2-3 4.2-3.4 4.5-.4.3-2 2.4-3.5 4.7-4.6 6.8-16.5 18.8-17.6 17.7-.2-.2-1 .2-1.7 1.1-.7.8-2.1 1.5-3 1.5-1 0-2 .4-2.2.9-.1.4-1.3 1.2-2.6 1.5-2 .7-2.1.5-1.3-1.7.6-1.4.7-2.8.4-3.1-.4-.3 0-.6.7-.6s1.1-.3.8-.6c-.3-.3.5-3.3 1.8-6.7 1.4-3.4 2.6-7.1 2.8-8.2.3-1.1 1.1-3.9 2-6.3.8-2.3 1.3-4.2.9-4.2-.3 0 0-.7.7-1.5.6-.8.9-1.9.5-2.5-.3-.5-.2-1 .3-1s.9-.6 1-1.3c.7-7.9.9-12.3.5-13.4-1.3-3.4-10.2-4.9-15.8-2.8-13.5 5.1-22.3 11.4-38.1 27-15.8 15.7-19.9 20.9-24.8 31-4.1 8.3-4.8 10.5-6.1 17.5-.2 1.4-.9 4.9-1.4 7.8-.6 2.9-1 5.6-1 6 .1.4.1.9 0 1.2-.2.3-.4 2-.7 3.9-1.1 9-8.9 18.5-22.2 27.4-3.8 2.5-4.6 2.4-4.4-.3.4-5.3 1.4-14.5 1.6-14.9.2-.3.7-3.3 1.1-6.6.4-3.3.9-7.4 1.1-9 .2-1.7.6-6.4.8-10.5.3-4.1.6-7.6.7-7.8.5-.8.2-5-.5-6-.4-.6-.3-1.2.3-1.2s.9-.6.6-1.3c-.2-.6-.6-3.7-.9-6.7-1-9.7-3-15.6-5.7-17.1-1.6-.8-2.6-.4-5.7 2.8-5.6 5.6-11.7 13-22.1 26.8-3.3 4.4-6.5 8.5-7.1 9.2-.5.7-1 1.7-1 2.3 0 .5-.3 1-.8 1-.4 0-1.8 1.8-3.2 4-1.4 2.2-2.8 4-3.1 4-.4 0-.9.8-1.3 1.7-.3 1-1.4 3-2.3 4.5-6.7 10-11.5 21.3-13.2 30.8-.8 4.9-.7 28.8.2 33 1.1 4.9 3.7 11.8 6.4 16.7 1.3 2.3 2.3 4.7 2.3 5.3 0 1.3-7.6 11.7-16.1 21.8-1 1.2-1.9 2.5-1.9 2.8 0 .5-7.9 11.4-8.3 11.4-.1 0-.2-3.7-.1-8.3.1-7.6-1.4-20.4-3.4-30.2-1.1-5.1-1-4.7-1.6-6.5-.3-.8-1.5-4.9-2.7-9-2.3-8-9.6-31.5-10.6-34-.4-.8-.7-1.8-.7-2.2-.1-.3-.4-1-.8-1.4-.5-.4-.8-1.4-.8-2.3 0-.9-1-3.6-2.1-6.1l-2.1-4.5-1.6 3c-.9 1.6-1.6 3.2-1.7 3.5 0 .3-.3.9-.6 1.5-.7 1.1-5 14.3-5.3 16-.1.5-.7 2.3-1.3 4-1.6 4.1-9.7 32-12.3 42.5-2.8 11-2.6 9.9-4.5 20.5-1.3 6.6-1.2 24.5 0 32.5 1.7 10.7 3.8 17.8 7.7 26 6.5 13.5 8.1 20.6 6.5 28-1.3 6.1-9.8 27-10.9 27-.5 0-1.6-1.7-2.4-3.8-1.9-4.5-11.4-23.5-14-27.8-1.1-1.7-3.7-6.2-5.8-9.9-8.6-14.8-18.7-26.5-23-26.5-.9 0-1.6-.5-1.6-1 0-1.4-3.4 1.9-4.7 4.5-3.2 6.2-5.8 35.6-5.7 63.5.1 18 .3 20.2 2.7 28.1 3 9.9 6.5 17.9 11 25.3 4.4 7.1 5.1 7.9 15.2 18.1l9 9.1-.1 17.4c0 18.2-.6 23.4-2.7 22.7-.7-.2-3.6-3.3-6.6-6.8-16-19-32.6-35.9-45.5-46.4-2.7-2.2-5.9-5-7.2-6.1-1.3-1.2-2.5-2-2.7-1.8-.2.2-1.2-.5-2.2-1.6-1-1.1-2.4-2-3.1-2-.7 0-1.8-.8-2.3-1.8-.6-.9-1.1-1.3-1.1-.8s-.7.3-1.5-.4-2.2-.9-3.1-.6c-1.3.5-1.5 1.7-1 6.9.4 3.4 1.3 9.1 2.2 12.7.8 3.6 1.7 7.6 1.9 9 .1 1.4.4 2.5.5 2.5.2 0 1 3.4 1.5 6.5.2 1.4 1.5 7 3 12.5 1.4 5.5 2.7 10.9 3 12 3.4 16.1 9.3 31.4 17 44.3 6.7 11.1 22.9 27.5 36.7 37 14.3 9.9 13.8 9.4 15.3 15.2.1.3.4 1.2.7 2 1.3 3.5 3.8 13.8 3.8 15.8 0 1.2.3 2.2.8 2.2.4 0 .8 1 .9 2.2 0 1.3.3 3.4.6 4.8 1.6 7.3 1.9 10 1.3 10-.8 0-12.7-8-14.1-9.6-1.6-1.7-22.3-15.4-23.3-15.4-.5 0-1.7-.9-2.7-2-1-1.1-2.1-1.7-2.6-1.5-.4.3-1 .1-1.4-.4-.3-.6-2.6-2-5-3.2-2.5-1.2-4.5-2.6-4.5-3.1 0-.4-.7-.8-1.5-.8-.9 0-3.2-1-5.3-2.3-5.4-3.4-15.9-7.7-19.9-8.2-2.9-.4-3.6 0-5.3 2.7-1 1.7-1.6 3.6-1.2 4.2.3.6.7 1.7.8 2.6.6 3.9 1.6 7.2 4.3 13.7 3.9 9.5 12.4 26.6 13.6 27.5.5.4.6.8.1.8s-.3.8.5 1.7c.8 1 2.3 3.4 3.3 5.3 2.2 4.1 9.9 15.1 13.6 19.5 5.5 6.6 28 28.4 30 29 1.1.3 2 1.1 2 1.6s.7.9 1.5.9 1.5.4 1.5.8c0 .5 3.5 2.6 7.7 4.8 4.3 2.1 8.1 4.3 8.4 4.7.3.5.8.8 1 .7.4-.1 3.5 1 8.7 3.2 1.5.6 3 1.1 3.5 1 .4-.1.7.3.7 1 0 .6.3.9.6.5 1.2-1.2 10.4 4.3 15.6 9.3 2.9 2.8 4.8 5 4.3 5s-.2.6.7 1.2c2.2 1.8 17.5 30.5 16.6 31.3-.2.2-4.8-1.9-10.3-4.6-35.6-17.4-52.2-22.8-75-24.5-6.2-.5-7.3-.3-8.9 1.5-1.6 1.7-1.8 3.1-1.3 7.7.8 7.8 4.4 12.7 21.4 29.6 14.7 14.5 16.2 15.9 26.8 25.3 3.8 3.3 8.2 7.2 9.9 8.8 1.7 1.5 3.4 2.7 3.9 2.7.4 0 1.7.8 2.8 1.8 1 1.1 3.2 2.5 4.7 3.3 1.5.8 2.9 1.6 3.2 2 1.2 1.2 18.1 8.9 25.1 11.3 14.5 4.9 23.5 6.3 44.1 6.9 8.4.3 8.8.4 13.5 4.2 2.6 2.1 5.5 4.6 6.4 5.4.9.9 4.1 3.6 6.9 6.1 2.9 2.5 7.3 6.4 9.7 8.6 2.3 2.3 4.3 4 4.3 3.8 0-.2 1.8 1.6 4 3.8 3.7 3.9 5.3 6.7 3 5.3-1-.6-3.6-1.3-7.5-2-3.5-.7-6.6-1.4-8.7-2.1-1.1-.3-3-.8-4.1-.9-1.2-.2-3.8-.7-5.7-1.1-1.9-.4-4.5-.8-5.7-.8-1.3-.1-2.3-.3-2.3-.6s-1-.7-2.2-.8c-1.3-.1-4.1-.4-6.3-.7-16.3-2.2-27.8-2.8-54.5-2.9-31.4 0-40.2.8-41.4 3.9-.6 1.8.4 2.5 9.9 7.1 4.4 2.1 8.2 4.1 8.5 4.4.3.3 2.1 1.3 4 2.2 5.6 2.7 11.5 6.2 11.8 7 .2.5.9.8 1.4.8.6 0 3.4 1.7 6.2 3.8 2.8 2.1 5.8 4.1 6.6 4.5.8.4 2.9 1.6 4.5 2.7 4.8 3.1 30.7 15.8 33.8 16.6 1.5.3 2.7.9 2.7 1.3s.6.8 1.3.9c2.4.2 7 1.7 9.9 3.3 1 .5 2.7.9 3.8.9 1.1 0 2 .4 2 .8s.8.9 1.8 1c2.1.2 4.2.7 6.2 1.5 2.5.9 7.1 1.8 18 3.3 6.7 1 39.2.9 44 0 1.9-.4 4.4-.9 5.5-1.1 6.4-1.3 8-1.7 9.5-2.5 1-.5 1.9-.7 2.2-.5.2.2 2.6-.2 5.2-1l4.9-1.5 23.8 12.2c13.2 6.6 23.7 12.3 23.5 12.5-.5.5-4 1-14.1 1.8-16.5 1.2-20.1 1.6-24 2.1-2.2.3-6 .7-8.5 1-2.5.2-5.6.6-7 .9-1.4.2-4.7.7-7.5 1.1-2.7.3-5.7.8-6.5.9-.8.2-3.5.6-6 1-8.5 1.3-9.1 1.4-17 3-1.4.2-3.8.7-5.5 1-1.6.2-4.4.9-6.2 1.4-1.7.5-3.4.7-3.7.3-.3-.3-.6 0-.6.6 0 .7-.7 1.2-1.5 1.2s-2.8 1.2-4.5 2.6c-2.6 2.4-2.9 3.2-2.6 7.5.5 5.8 2.4 7.8 10.6 10.8 5.3 2 15 4.7 20 5.7 1.3.3 2.9.9 3.6 1.5.6.5 1.3.7 1.5.4.3-.2 2.2 0 4.4.6 14.8 3.5 27 4.4 57.5 4.4 49.6-.1 59.1-2.2 84.5-18.9 3.8-2.5 7.6-4.4 8.5-4.2.8.3 5.6 1.7 10.5 3.2 5 1.6 9.5 2.8 10 2.9 2 .1 8.5 2.7 8.5 3.3 0 .8-10.7 8-16 10.8-1.9 1.1-3.7 2.1-4 2.5-.6.6-37.4 19.1-37.8 18.9-1.2-.4-24 11.9-26.3 14.3-5.1 5.3-5.2 11.7-.2 13.5 3.9 1.3 26.7.6 44.3-1.3 6.8-.8 15.5-1.7 19-2 1.9-.2 5.2-.6 7.3-.9 4.8-.8 10.5-1.6 13.9-2.1 1.5-.2 4.6-.9 7-1.6 2.4-.7 4.6-1.3 5.1-1.5.4-.1.9-.3 1.2-.4 1.7-.9 6-2.1 6.9-2 .5.1 1.2-.2 1.5-.7.3-.5 2.9-1.7 5.6-2.7 8.2-3.1 26-12.7 42.3-22.9 19.3-12.1 24.3-14.1 33.6-13.3 8.3.6 16.6 4.5 34.2 16.2 11.2 7.4 30.9 18.1 36.4 19.9 1.4.4 2.7.8 3 .9 2.6 1.1 12.7 3.9 13.3 3.8.4-.1 1.7.3 2.8.9 1.1.6 3.3 1.1 5 1.1 1.6.1 2.9.4 2.9.7 0 .3 1 .7 2.3.7 1.2.1 4.2.5 6.7.9s5.7.8 7.2.9c1.5.1 3 .5 3.4.8.3.4 1.2.4 2 .1.8-.3 2.2-.2 3.2.2.9.4 3.7.9 6.2 1 2.5.2 7.2.6 10.5 1 33.7 3.5 49.5 1.4 49.5-6.7 0-2-5-7.8-6.6-7.8-.8 0-1.4-.5-1.4-1 0-.6-.7-1-1.5-1s-1.5-.3-1.5-.8c0-.4-2-1.6-4.5-2.7s-4.5-2.3-4.5-2.8c0-.4-.3-.6-.7-.5-.5.1-5.1-1.9-10.3-4.4-20.8-9.9-55.8-25-62.8-27-1.8-.5-3.1-1.5-2.9-2.1.3-1.1 11.6-5 18.1-6.2 1.7-.4 4-.8 5.1-1 1.1-.2 3.1-.7 4.5-1 1.4-.3 3.9-.9 5.5-1.2 1.7-.2 3.5-.8 4-1.3.6-.4 4.6 1.2 9 3.6 14 7.7 30.1 15.3 37.5 17.7 10.7 3.6 35.1 4.9 61 3.4 6.3-.4 12.6-.9 14-1.1 1.4-.3 4.8-.7 7.5-1.1 5.8-.7 10.9-1.5 13.9-2.1 1.1-.2 3.7-.7 5.6-1 1.9-.3 5.3-1 7.5-1.5s5.1-1.2 6.4-1.5c9.7-2 26.5-9.5 27.6-12.2 2.3-5.5.7-10.1-4.2-12-1.5-.5-3.7-1.4-4.8-1.8-1.1-.4-2.6-.6-3.2-.5-.7.1-1.3-.3-1.3-.9 0-.6-.4-.9-.8-.6-.5.3-2.4.1-4.3-.4s-5-1.1-6.9-1.4c-1.9-.3-6-1-9-1.6-3-.6-7.1-1.3-9-1.6-3.3-.4-14.1-1.9-22-3-1.9-.3-5.7-.7-8.5-1-2.7-.3-5.7-.7-6.5-.9-.8-.2-4.9-.7-9-1.1-4.1-.3-8.4-.8-9.5-1-1.1-.3-5.6-.7-10-1-4.3-.3-8.1-.7-8.3-.9-.2-.2 4.1-2.6 9.5-5.3 10.2-5.2 14.4-7.6 23.4-12.9 3-1.7 5.7-3.1 6-3 .3.1 1.3-.4 2.2-1.1 1.5-1.3 6.8-1.2 13.7.3 2.8.6 8.1 1.4 12.5 2 1.7.2 5 .7 7.5 1 2.5.4 7.5.8 11.2.8 3.8.1 6.8.6 6.8 1 0 .5.4.6.9.3.5-.4 7.2-.8 14.8-1.1 17.3-.5 26-1.8 33.9-5.1 1.7-.7 3.4-1 3.8-.7.3.4.6 0 .6-.7s.3-1.1.6-.7c.4.3 1.9 0 3.5-.9 1.6-.8 3.2-1.5 3.6-1.5.8-.1 4.7-1.5 7.3-2.6.8-.3 1.8-.5 2.3-.5.4.1.7-.2.7-.8 0-.5.9-1 2-1s2-.4 2-.8c0-.5.6-.9 1.3-.9 2 0 42.6-20.7 45.2-23 .6-.5 1.7-1.2 2.7-1.5.9-.4 5.4-3.1 10-6 4.5-3 9.1-5.7 10.1-6.1.9-.3 1.7-1.1 1.7-1.7 0-.5.5-1 1.1-1 1.1 0 11.4-7.6 14.5-10.7 1.5-1.6 1.5-1.7-.2-2.3-1.1-.4-5.2-.7-9.1-.6-4 .1-7.3-.3-7.3-.7 0-.5-.4-.5-1-.2-.5.3-10.6.8-22.2 1.1-20.6.4-33.3 1-33.3 1.4 0 .1-2 .3-4.5.5-4.1.2-10.7 1-17 2.1-1.4.2-4.5.7-7 1-5.9.8-6.7 1-12 2.4-2.5.7-5.4 1.3-6.5 1.5-4.3.6-21.1 4.6-23.2 5.5-4 1.7-2.7-1.1 3.1-6.4 18.6-17.6 32.3-29.5 35.6-30.8 2.4-1 5.5-1.3 26.3-1.8 7.9-.3 11.2-.7 19.5-2.4 3.5-.8 17.6-5.8 18.8-6.7.6-.5 1.4-.6 1.7-.2.4.3.7.1.7-.5 0-.7.5-1.2 1-1.2 1.1 0 12.1-5.2 15.5-7.3 12.4-7.7 16.1-10.2 16.7-11.1.4-.6.8-.8.8-.3 0 .4.8-.1 1.9-1 1-1 3.3-2.9 5.2-4.3 9.6-7.2 21.3-18.6 32.4-31.5 3.3-3.9 6.3-7.2 6.8-7.3.4-.2.7-1 .7-1.8s.3-1.4.8-1.4c.9 0 14.9-17.9 19-24.4 1.7-2.7 2.9-5.3 2.6-5.8-.5-.8-4.7-.6-12.4.7-1.4.3-8.8 2.3-16.5 4.6-7.7 2.3-16 4.8-18.5 5.5-2.5.7-10.8 3.6-18.5 6.4-7.7 2.8-14.5 5.2-15.2 5.4-.7.1-1.6.5-1.9.9-.4.4-1.5.7-2.4.7-.9 0-2.1.5-2.8 1.2-.6.6-1.7 1.3-2.4 1.4-.7.2-7.1 2.8-14.1 5.8-7.1 3.1-13.3 5.6-13.8 5.6-1 0 .9-3.8 6.1-12.5 1.6-2.8 3.7-6.4 4.5-8 .9-1.7 4.6-7.5 8.3-13l6.7-10 8.5-2.8c4.7-1.5 11.3-3.6 14.7-4.7 3.3-1.1 7.4-2.5 9-3.2 1.5-.6 3.1-1.2 3.4-1.2 1.3-.2 8.4-4.2 8.7-4.9.2-.4.8-.7 1.4-.7 1 0 9.1-5.3 11.8-7.9 19.1-17.6 33.9-37.9 53-72.6 1.8-3.3 4.5-8 5.9-10.5 1.4-2.5 2.6-4.7 2.6-5 .1-.3 2.2-4.6 4.7-9.5 2.5-5 4.8-10.2 5-11.5.3-2.3 0-2.5-3.4-2.3-3.9.2-23.8 7.9-24.9 9.5-.3.6-.9.9-1.3.9-.8-.2-14.1 6.5-18.5 9.4-2 1.2-4 2.4-4.6 2.6-.5.2-1.7.9-2.5 1.6-.8.7-4 2.9-7.1 5-3.1 2.1-7.3 5.1-9.3 6.8-7.3 5.8-18.1 15-21.6 18.2-1.9 1.8-4.3 3.6-5.2 3.9-1 .3-1.8 1-1.8 1.7s-.3.7-.9.1c-.6-.5-.6-2.8 0-5.9.6-2.8 1.2-6.1 1.5-7.5.2-1.4.9-4.5 1.4-7 .6-2.5 1.2-5.4 1.4-6.5 1.2-6.5 4-15.5 5.8-18.7 2-3.5 4-4.9 23-16.2 10.1-6 20.2-14.8 28.6-24.9 2.7-3.3 11.5-19.7 10.6-19.7-.4 0-.2-.6.3-1.3.6-.6 1.8-3.7 2.7-6.7 1-3 1.9-6.1 2.2-6.8.2-.7.3-1.3.2-1.5-.1-.1.4-1.1 1-2.3.6-1.1 1.3-3.2 1.6-4.5.2-1.3 1.2-5.3 2.1-8.9.9-3.6 1.9-7.3 2.1-8.3.2-.9.6-2.6.9-3.7 1.2-4.9 1.6-6.7 2.1-9 .3-1.4.7-3.3 1-4.2.3-.9.7-2.5.9-3.5.2-1 1-5 1.9-8.8.8-3.9 1.7-8.2 2-9.5.2-1.4.9-4.5 1.4-7 .6-2.5 1.3-6.2 1.6-8.4.4-2.1.9-4.2 1.2-4.7.8-1.3-2.2-2.2-4.1-1.2-5.9 3.4-57.4 54.6-69 68.8-5.5 6.7-7.6 8.8-8.2 8.1-.3-.3-.7-2.4-.9-4.8-.1-2.4-.3-4.3-.4-4.3-.2 0-.7-6.4-1.4-18.8-.3-5.9-.7-11.1-.7-11.5-.1-.4-.1-2.1 0-3.7.1-2.7.9-3.6 6.4-6.7 12.1-7 19.7-16.5 25.5-31.4 1.7-4.4 3.3-9.3 3.6-10.8.3-1.4.7-3.4 1-4.4 4.6-15.2 5.7-70.6 1.9-98.2-.8-6.5-1-8.2-1.2-11-.1-1.4-.6-3.2-1.1-4-.9-1.3-1.3-1.1-3.1 1-3.2 3.9-19.2 28.2-21.4 32.6-1.1 2.1-2.3 4-2.7 4.2-.5.2-.8.9-.8 1.5 0 .7-2.7 5.7-6 11.2-7.4 12.5-10.5 18.7-15 29.8-2 4.9-4 8.9-4.5 9-.5.1-1.8-2.1-2.8-4.8-3.1-8.5-11.9-28.9-12.9-30.3-.6-.6-.8-1.2-.5-1.2.3 0-.3-1.7-1.3-3.7-2.1-4.5-1.9-5.4 2.3-7.7 7.7-4.5 12.8-12.1 16-24.1 1.5-5.7 2-8.6 3.3-18 .5-3.2.6-25.9.2-32.5-.2-5.1-4.4-22.9-7.2-31-3.9-11.1-10.7-28.3-11.6-29-.3-.3-1.4-2.5-2.5-5s-2.5-4.9-3.2-5.3c-.7-.4-1.3-1.4-1.3-2.2 0-1.8-2.2-2.5-3.5-1.1-1.6 1.6-11.1 22.6-11.9 26.1-.1.5-1.9 6.2-3.9 12.5s-3.9 13-4.2 14.9c-.3 1.9-.8 3.7-1 4-.2.4-.6 2.7-1 5.1-.3 2.5-.8 5.6-1 7-.2 1.4-.7 7.7-1 14-.3 6.3-.7 11.5-.8 11.6-.4.4-13.7-19.6-13.7-20.6 0-.5-.4-1-1-1-.5 0-1-.7-1-1.5s-.4-1.5-1-1.5c-.5 0-1-.8-1-1.8s-.5-2.3-1.1-2.9c-.7-.7-.8-1.7-.3-2.5 2-3.1 2.7-12.9 2.8-35.8.1-25.5-.5-30.7-4.4-40.5-1.8-4.7-5.6-12-6.2-12.3-.5-.2-.8-.8-.8-1.3 0-2.1-11.5-18.3-22.7-32-3.9-4.7-7.9-9.6-8.9-10.8-5.2-6.4-20.3-21.1-21.6-21.1-1 0-1.5.9-1.4 2.7.1 1.6-.2 3.6-.7 4.7-.7 1.3-.6 1.6.3 1.1.9-.6.9-.3.1 1.2-.6 1.1-.7 2.3-.4 2.7.4.3.8 5.2.9 10.9.3 9.1.7 15.3 1.9 26.7.2 1.9.4 3.5.5 3.5.1 0 .3 2 .5 4.5s.4 4.5.5 4.5c.1 0 .3.9.5 2 2.3 12.4 2.8 15.1 3.3 16 .3.5.7 2.1.9 3.5.1 1.4.4 3.9.6 5.6.2 1.7.7 3.6 1.2 4.3 1.9 3.2-5.9-2.8-15-11.4-2.3-2.2-7.3-6.9-11-10.3l-6.9-6.4-.1-11.6c-.3-19.8-2.5-31.8-7-37.8-4.2-5.5-29.3-30.1-37.2-36.4-4.6-3.7-9.9-7.6-11.8-8.6-1.1-.6-3.6-2-5.5-3.1-8.7-5-18.2-6-21-2.3-2.1 2.8-1.9 13.4.4 19.7.8 2.2 1.2 4.4.9 4.7-.4.3-.1.6.5.6s.9.7.6 1.5c-.4.8-.1 1.5.7 1.5.7 0 1 .2.7.6-.3.3.9 4 2.6 8.2 4.6 11 4.9 11.6 5.2 12.7.1.5.9 2.7 1.8 4.7 1.9 4.4.7 5-3.4 1.8-1.4-1.1-3-2-3.6-2-.6 0-1.9-.9-2.9-2s-2.2-2-2.6-2c-3.6 0-20.7-19.6-30.4-34.8-1.6-2.4-7.6-7.9-12-11-2.2-1.5-4.2-2.9-4.5-3.2-.3-.3-1.8-1.2-3.5-2-1.6-.8-3.2-1.7-3.5-2-.3-.3-3.3-1.7-6.7-3-3.5-1.4-6.3-2.7-6.3-3 0-.3-1.2-.7-2.6-.8-1.5-.1-3.2-.6-3.9-1.2-.6-.5-2-1.1-3.1-1.3-1-.2-2.6-.7-3.4-1-1.4-.5-5.7-1.5-7.2-1.7-.4 0-2.6-.7-4.9-1.5-2.2-.8-4.3-1.4-4.7-1.3-.4.1-2.5-.2-4.7-.7-10.1-2.1-16.9-1-17.9 2.9-1 4 2.4 15.6 4.6 15.6.4 0 .8.6.8 1.2.1 4 19.4 22.9 31.8 31.1 8.8 5.8 27.8 15.7 30.2 15.7.6 0 1.8.4 2.8 1 1.4.8 5.8 2.7 8.2 3.5 3.5 1.2 13.4 5.9 17.5 8.3 1.7 1 5.6 3.3 8.8 5.1 3.1 1.8 5.7 3.6 5.7 4 0 .4-1.2.7-2.7.8-2.8 0-20.4 1.3-25.3 1.9-8.4.9-19.5 3.1-28.9 5.5-15.7 4.2-18.5 6.5-17.9 14.7.3 2.9.9 5.7 1.5 6.3 1.2 1.2 4.5 2 10.3 2.4 11.7.9 16.3 1.4 16.7 1.9.3.3 1.4.1 2.4-.5 1.1-.5 1.9-.6 1.9-.1 0 .4 1.7.8 3.8.9 12.5.4 18.2.9 18.2 1.4 0 .8 3.2.5 4.8-.5.6-.4 1.2-.4 1.2.1 0 .4 2.4.9 5.3.9 5.5.2 30.9 1.1 51 1.9 6.5.3 12.4.8 13 1.2.7.4 1.8.8 2.6 1 2.3.3 11.1 6.7 10.8 7.8-.2.6-4.3.9-9.8.9-5.2-.1-17.6-.3-27.7-.5-20.7-.3-22.3.2-24.8 7.3-2.2 6.4 1.6 9.8 19.1 17.3 2.2.9 4.9 2.1 6 2.6 1.1.4 4.7 1.9 8 3.2 3.3 1.3 6.9 2.8 8 3.2 1.1.5 2.2.9 2.5 1 .5.2 3.5 1.3 10.5 4.1 2.2.9 4.8 2 5.7 2.5 1 .5 2.6.9 3.6.9s2.2.3 2.6.7c.4.5 1.2.9 1.7.9.5.1 1 .2 1.2.4.3.2-.1.1 16.7 4.5 7.4 1.9 14.5 3.5 15.8 3.5 1.2 0 2.2.4 2.2.8s.8.8 1.8.9c5.6.4 14.7 3.7 19.1 7 6.6 4.9 14.9 14.3 12.7 14.3-.2 0-4.6-1.6-9.7-3.6-14.3-5.5-25.2-9.5-27.6-10-1.2-.2-3.3-.8-4.5-1.3-1.3-.5-2.6-.9-3.1-.9-.4 0-2-.3-3.5-.6-7.3-1.5-12.4-1.5-15.7-.1-4.3 1.7-5.8 5-3.9 8.6 1.5 2.9 11.4 12.4 19.7 19 3.2 2.4 5.7 4.7 5.7 5.1 0 .5.6.8 1.3.8.6 0 2.6 1.4 4.4 3 1.8 1.7 3.6 3 4.2 3 .5 0 1.1.3 1.3.7.4 1.1 8.5 7.3 9.4 7.3.4 0 1.4.7 2.3 1.5 2.7 2.6 14 10.5 15 10.5.5 0 1.1.4 1.3.8 1 2.3 29.3 19.5 42.9 26.1l8.6 4.1 3.8 8.3c2 4.5 4.4 9.6 5.2 11.4.8 1.8 1.3 3.7 1.1 4.3-.2.6-7.7-3.4-16.7-9-9-5.5-16.8-10-17.2-10-.5 0-.9-.3-.9-.8 0-.4-2.1-1.7-4.7-3-2.7-1.2-5.5-2.7-6.3-3.2-2.5-1.4-5.4-2.4-10.2-3.3-5.8-1.1-8.8 4.8-6.2 12.2 2.9 8.3 13.4 24.8 21.9 34.4 1.4 1.5 2.5 3 2.5 3.2 0 .5 3.9 5.1 6.8 8.1.6.7 1.2 1.5 1.2 1.9 0 .3 1.2 1.8 2.8 3.3 1.5 1.5 4.4 4.8 6.6 7.2 8.5 9.9 21.6 22.7 31.1 30.4 13.4 10.9 16.7 14.8 18 21.8 1.2 6.3 1.4 7.3 2 9.8 1.1 4.6 1.4 10 .6 10-.4 0-4.3-3.4-8.7-7.6-29.7-28.5-43.6-39.4-52.3-40.9-5.7-1-6.7 2.9-3.7 14.5 1 3.6 1.9 7.3 2.1 8.2.8 3.6 7.8 23.3 10.1 28.4 1.3 2.9 2.4 5.6 2.4 5.9 0 3.4 28.5 54.8 31.9 57.5.3.3 1.8 2.3 3.3 4.5 1.5 2.3 4.5 5.9 6.5 8.1 10.7 11.3 11.1 11.9 10.8 16.6-.2 4.1-1 9.8-2.1 16.3-.3 1.6-.7 4.1-.9 5.5-1.1 6.6-2.6 12-3.5 12-.4 0-1.3-2.1-2-4.8-.6-2.6-1.5-5.4-1.8-6.2-.3-.8-.6-1.7-.7-2-.2-1-11.5-23.6-13.2-26.5-7.6-13-12.9-20.9-16.8-25.4-3.8-4.3-10.2-9-11.8-8.7-7.4 1.6-9.1 7.8-9.1 32.6.1 16.8 1.2 33.2 3 42.5.3 1.6.5 3.7.6 4.5 0 .8.5 3.5 1 6s1.1 5.6 1.3 7c.6 3.5 3.6 14.3 4.3 15.5.4.5.8 1.8.9 2.8.2 1 3.7 9.5 7.8 19 4.2 9.5 8.3 18.9 9.2 21 1.7 3.9 2 8.8.6 10.9-.4.7-.9 2-1 3-.5 3.1-13.7 31.8-14.6 31.8-.2 0-.4-.6-.4-1.3 0-2.8-1.9-17-2.9-22.1-.2-1.1-.6-4.5-1-7.4-.3-2.9-.8-6.3-1-7.5-.3-1.2-.7-3.6-1-5.2-.2-1.7-.8-5.3-1.4-8-.6-2.8-1.2-5.9-1.4-7-.2-1.1-.9-3.2-1.4-4.6-.6-1.5-.8-3-.5-3.3.3-.3 0-1.2-.6-2-.7-.8-1-2-.6-2.6.3-.5.2-1-.3-1s-.9-.6-.9-1.3c-.2-2.3-2.8-8.2-4-9-.7-.4-1.3-1.4-1.3-2.2 0-2.2-7.1-7.5-9.4-7-1.2.2-2.4.4-2.8.4-1 .1-4.6 10.3-5.3 15.2-.4 2.4-1.1 4.9-1.6 5.5-.5.6-.6 1.3-.3 1.6.3.4-1.5 11.1-4 24-5 26-8.2 43.5-9.1 48.8-2.3 15-2.5 29.8-.7 40.5 1.9 11.3 2.2 22.3.6 26.8-1.2 3.3-3.2 6.4-8.4 13.1-3.6 4.6-10.2 10.6-11.6 10.6-.8 0-1.2-.4-.9-1 1.5-2.4 4.6-44.9 4.9-66.9.1-7.7-.1-8.4-1.9-8.7-1.1-.2-3.6-.6-5.5-.9-1.9-.4-4.5-.9-5.8-1.1-1.6-.3-3.1.5-5.2 2.8-1.7 1.8-3 3.6-3 4.1 0 .4-2.1 4.5-4.7 9-2.5 4.5-5.1 9.1-5.7 10.2-.6 1.1-4.2 6.5-8.1 11.9-3.8 5.4-7.4 10.6-8 11.5-.5.8-2.2 3.4-3.7 5.7-4.7 7.2-10.9 23.2-12.4 32.4-.3 1.4-.7 3.3-1 4.3-.3 1-.7 3.2-1 5-.2 1.8-.6 4.4-.9 5.9-.4 1.5-.8 4-1 5.7-.2 1.6-.9 5.8-1.5 9.3-.6 3.5-1.3 7.2-1.4 8.3-1 5.4-2.8 10.3-4.6 12.3-2.5 2.6-11.4 9.2-15.2 11.1-1.6.8-2.8 1.8-2.8 2.3 0 .4-.9.8-1.9.8-1.1 0-2.1.6-2.4 1.2-.2.7-.7 1-1.1.7-.8-.7 1.7-10.3 3.9-15.4 1.2-2.7 9.6-27.7 10.1-30 .2-.6 2.3-7.8 4.9-16 2.5-8.3 4.7-16.5 4.9-18.3.2-1.8.6-3.5 1-3.9.8-.8.8-7.3 0-7.3-.3 0-2.2 1.5-4.2 3.4-12.9 11.9-18.3 16.9-25 23.3-4.2 4-8 7.3-8.4 7.3-.4 0-.8.4-.8.9 0 .6-2.5 3.4-5.6 6.3-17.7 16.6-38.4 37.8-48.9 49.9-5.3 6-9.2 12.6-10 16.6-.8 4.8-6.3 14.8-10 18.5-3.5 3.4-10.1 7.2-17 9.7-4.1 1.4-11.5 3-11.5 2.4 0-.8 3.6-5.7 14.7-20.3 12.6-16.5 11.4-14.7 14.1-19.5 4.1-7.3 8.1-16.2 8.7-19.5.3-1.9.8-3.7 1-4.1 1.1-1.7-2.4-1.4-8.5.8-3.6 1.4-11.4 4.3-17.5 6.5-14.2 5.2-22.3 8.2-25.8 9.7-1.6.6-3.3 1.1-3.8 1.1s-1.7.4-2.7 1c-2.5 1.4-15.4 6.8-17.2 7.2-.8.2-2.1.9-2.8 1.6-.8.7-1.8 1-2.3.7-.5-.4-.9-.1-.9.4 0 .6-.7 1.1-1.5 1.1s-1.5.4-1.5.9-.6 1.1-1.4 1.3c-2.1.5-8.1 5.6-17.9 15.5-10.6 10.6-15.7 16-15.7 16.8 0 .3-1.8 3-3.9 5.9l-3.9 5.3-24.7-.1-24.7-.1-3-5.5c-7-12.9-17.4-25.3-25-29.8-1.6-.9-2.8-2-2.8-2.4 0-.4-.5-.8-1.1-.8-.6 0-2.3-.9-3.9-2-1.5-1.1-7.2-4.1-12.6-6.8-9.3-4.6-13.8-6.5-27.4-11.4-3-1.2-6.4-2.4-7.5-2.9-1.1-.4-3.2-1-4.7-1.3-1.5-.4-4-1.1-5.5-1.8-3-1.2-3.6-1.4-6.8-2.2-1.1-.3-3.6-1-5.5-1.6-6.6-2-12.6-2.2-14-.5-1.6 2-2 7.2-.8 10.4 2.9 7.3 5.2 12.1 6 12.1.4 0 .8.5.8 1.1 0 1.1 5.9 8.8 19.5 25.4 3.6 4.3 6.5 8.2 6.5 8.6 0 1-5.2.3-12-1.6-.3-.1-1.8-.5-3.5-.9-1.6-.5-5.6-2-8.7-3.3-4.8-2.1-6-3.2-7.7-6.9-1.2-2.4-2.1-4.8-2.1-5.4 0-.6-.4-1.8-.9-2.8-.5-.9-2.4-4.7-4.2-8.4-1.8-3.8-3.6-6.8-4.1-6.8-.4 0-.8-.5-.8-1.1 0-1.3-7.4-11.7-12-16.9-15.4-17.2-42.9-45.4-54-55.1-12.7-11.2-17.1-12.9-22.6-8.7-5.3 4.1-5.4 2.7.8 22.3 2.3 7.1 4.3 13.2 4.3 13.5.1.3.4 1.2.8 2 2.6 6.5 11.8 34.3 11.5 35.1-.3.9-11.5-5.4-21.6-12.2-2.4-1.6-4.7-2.9-5.3-2.9-.5 0-.9-.6-1-1.3 0-.6-.3-2.6-.6-4.2-.4-1.7-.7-4.7-.7-6.7-.1-2.1-.3-3.8-.6-3.8s-.5-1.2-.6-2.8c0-1.5-.3-4.7-.7-7.2-.4-2.5-.9-6.3-1.2-8.5-.3-2.2-.8-5.1-1.1-6.5-.3-1.4-.8-3.9-1.1-5.5-.3-1.7-.6-3.5-.8-4-.8-3.8-1.8-7.2-2.2-8.5-.3-.8-.8-2.4-1-3.4-.2-1.1-.8-2.5-1.3-3.1-.5-.6-1.1-2-1.3-3.1-.5-3.6-10.6-23.5-15.6-30.7-5.6-8.3-10.5-16-10.6-16.7-.1-1.1-11.7-20.2-17.7-29-13.8-20.4-14.7-21.4-14.9-16.3-.3 8.8-.1 31.5.5 49.8.4 11.5.9 26.2 1.1 32.5.2 6.3.4 11.6.5 11.7.7.8.5 3-.3 4-.6.8-2.6-.6-6.9-5-12-12.3-15.7-18.1-15.3-24.2.1-2.5 1.6-12.8 2-14.5.7-2.9 2.5-12.3 3-15.5.7-4.8.7-21.8 0-26-.3-1.7-.8-4.6-1.1-6.5-.3-1.9-.8-4.6-1-6-.9-6.3-9.5-44.5-12.4-55-8.6-31.2-8.6-31.2-17.4-29.7-1.8.3-4.8 3.2-5.8 5.7-1.3 2.9-1.2 2.7-3 9.8-.7 2.8-1.6 5.2-2 5.2-.4 0-.5.6-.2 1.4.3.8.1 3.1-.5 5.2-.6 2.2-1.3 5.5-1.6 7.4-.3 1.9-1 6-1.5 9s-1.1 7.7-1.5 10.5c-.3 2.7-.8 6.3-1.1 8-.6 3.9-1.1 8.9-2 20.5-.4 5.2-.8 10.2-1 11-.1.8-.3 1.7-.3 1.9-.1.5-14.8-29.1-17.4-34.9-4.9-11.2-5.4-15.2-2.3-18.7 2.9-3.2 3.6-4.3 3.6-5.2 0-.6.8-1.5 1.8-2 .9-.6 1.4-1.1 1-1.1-.4 0 .3-1.6 1.7-3.6 3.8-5.6 12.8-30.2 14.9-40.9.2-.6.8-3.5 1.4-6.5.6-3 1.4-7.1 1.7-9 .3-1.9.8-4.9 1.1-6.5.3-1.7.7-4.8.9-7 .2-2.2.5-4 .5-4 .8 0 1.3-16.2 1.3-35 0-22.2-.8-35.5-2.2-36.5-.3-.3-.8-1.4-.9-2.5-.2-1.1-.9-2.6-1.4-3.3-2.4-2.9-4.6-.8-8.9 8.4-4.8 10.6-6.2 13.4-10.2 20.4-5 8.6-6.1 10.4-6.8 11-1.4 1.3-5 8-4.2 8 .4 0 .3.4-.3.8-.9.6-7.4 12.2-7.9 14.2-.1.3-.9 2.1-1.8 4.1-2.7 6.1-6.6 16.9-6.1 16.9.2 0-.2 1.3-1.1 3-.8 1.6-1.5 3.1-1.5 3.2.2.4-1 3.8-2.2 6.8-1 2.5-1 2.5-1.8.4-.5-1.2-1.1-3.4-1.4-5-.3-1.6-1.5-7.4-2.6-12.9-2.6-12.3-3-16.9-1.8-21.2.8-3.1 10.6-18.5 14.5-22.9 1-1.1 3.4-4.2 5.2-6.9 1.9-2.8 3.8-5.2 4.1-5.5 2.2-1.9 15.4-23.5 20.1-33 5.1-10.1 13.4-29.8 14.4-34 .2-.8 2.1-6.6 4.3-12.8 2.2-6.1 3.8-11.2 3.5-11.2-.3 0-.1-.6.5-1.3.5-.6 1.3-2.8 1.8-4.7 1.1-5 1.1-5 1.4-5.3.2-.3 1-3.8 1.5-6.4.2-1.2.6-2.6.9-3.1 1-1.6-1.9-3.2-5-2.6-9.4 1.6-17.4 6.7-31.6 20.2-4.9 4.8-9.4 8.8-9.9 9-.5.2-.9.8-.9 1.3 0 .6-1.3 2.2-2.8 3.7-4.6 4.4-11.6 13.2-16.6 21-2.7 3.9-5.1 7-5.6 6.7-.9-.5-.4-7.3 1.5-19.7.6-4.6 5.5-20.1 6.4-20.8.4-.3 1.6-2 2.6-3.8 1.1-1.7 2.2-3.2 2.5-3.2.4 0 1.5-.8 2.6-1.8 1-.9 4.4-3.3 7.4-5.2 3-1.9 5.7-3.8 5.8-4.2.2-.5.8-.6 1.3-.2.5.3.9.1.9-.3 0-.5 1.8-1.9 4-3.3 5.3-3.3 26-24.8 26-27 0-.6.3-1 .8-1 .4 0 1.8-1.7 3.2-3.7 1.4-2 3.6-4.7 5-6 1.4-1.3 2.1-2.3 1.5-2.3-.5 0-.2-.6.6-1.3 1.5-1.1 17.2-22 25-33.1 1.9-2.7 4.6-6.5 6.1-8.5s3.5-4.9 4.4-6.5c.9-1.6 2.7-4.1 4-5.4 1.2-1.4 2.1-2.9 1.8-3.4-.3-.4-.1-.8.4-.8.4 0 1.6-1.6 2.5-3.6l1.7-3.5-2.7.4c-3.3.6-8.5 2.8-24 10.3-6.2 3-11.7 5.4-12.3 5.4-.5 0-1 .4-1 .8 0 .5-1.2 1.4-2.7 2.1-5.4 2.4-19.9 11.5-28.5 17.7-4.8 3.5-9.2 6.4-9.8 6.4-.5 0-1 .4-1 1 0 1-5.2 4-7 4-.6 0-.4-1.4.6-3.8.9-2 1.7-4.2 1.8-4.8.1-.7.7-1.8 1.3-2.5.6-.8 1.2-1.9 1.2-2.4.4-3.9 10.3-16 16.6-20.3 2.8-1.9 16.9-8.2 18.4-8.2.6 0 3.2-1.2 5.8-2.8 2.6-1.5 6-3.4 7.6-4.1 1.5-.8 2.7-1.8 2.7-2.3 0-.4.5-.8 1.1-.8.7 0 3.1-1.6 5.5-3.5 2.3-1.9 4.5-3.5 4.8-3.5.4 0 1.9-1.1 3.4-2.4 1.5-1.4 4.4-3.6 6.4-5 7-4.7 10.3-7.1 11.3-8.2.5-.6 3.5-2.8 6.7-4.8 3.1-2 6.2-4.3 6.8-5.1.7-.8 1.9-1.5 2.6-1.5.8 0 1.4-.5 1.4-1 0-.6.4-1 1-1 1.6 0 20.4-14.5 23.4-18.1 2.3-2.7 2.7-4 2.3-7.1-.7-5.2-4.4-10.1-7.1-9.5-13.3 3.1-36.1 10.5-49.8 16.3-5.9 2.5-11 4.5-11.4 4.4-.4-.1-1 .3-1.3.8-.3.6-1.9 1.4-3.4 1.7l-2.7.7 2.7-5.2c3.8-7.1 9.9-13.1 16.5-16.2 5.2-2.5 12.3-4.8 15.8-5.3 12.5-1.6 36.8-8.2 49.5-13.5 1.1-.5 4.1-1.8 6.8-2.9 2.6-1.1 4.7-1.8 4.7-1.5 0 .3 1.2-.2 2.8-1 1.5-.9 6.3-2.9 10.7-4.6 4.4-1.7 8.9-3.5 10-4 1.1-.6 7.6-3.4 14.5-6.4 11.2-4.8 12.5-5.6 12.3-7.7 0-1.3-.2-4-.3-5.9-.4-6.8-1.6-8.5-6-8.5-2.2 0-4 .4-4 .9 0 .4-.6.3-1.3-.3-.8-.6-1.6-.9-1.8-.6-1 .9-47.2 2.6-50.6 1.8-3.6-.8-2.7-2.9 2.7-6.2 2.8-1.7 5-2.8 5-2.6 0 .3.8.1 1.8-.4 1.6-.9 6.3-1.8 12.7-2.7 1.7-.2 8.4-.3 15-.3 55.1.1 77.5-.2 77.5-1.1 0-.3 1.5-.6 3.3-.6 6.2-.3 15-2 17.9-3.5 1-.5 1.8-.7 1.8-.3 0 .3.7 0 1.7-.7.9-.8 1.8-1.2 2-.9.7 1.2 6.3-5.4 6.3-7.4 0-6.5-12.8-13.4-29.5-16-13.3-2-18-2.6-36-4.1-13.2-1.1-18.2-1.8-19.1-2.8-.4-.4 4.4-3.1 10.7-6.1 13.7-6.5 31.5-13.6 32.3-12.8.3.3.6.1.6-.5 0-.5.7-1 1.5-1.1.8-.1 2.2-.3 3-.4.8-.1 1.5-.5 1.5-.9s1.2-1 2.8-1.4c3.8-.9 23.2-10.7 23.2-11.7 0-.4.5-.8 1-.8.9 0 8.7-4.7 10-6 .3-.3 2.3-1.8 4.5-3.4 6.5-4.7 19.9-18.9 22.8-24 4.5-8 3.9-14.8-1.7-17.8-2-1.1-12.1-1.9-13-1.1z"/><path d="M606.8 220.5c-.2.2-8.6.5-18.8.8-21.8.7-21.2.6-39.5 5.7-15.1 4.1-35.2 13.7-47.5 22.6-10.3 7.4-13.3 10-26.9 23.4-13.9 13.7-16.3 16.5-22.1 25-2.5 3.6-4.8 6.7-5.1 7-1 .8-8.3 13.8-14.8 26.5l-6.2 12-87.4-.1c-63.4-.1-87.5.2-87.6 1-.4 3.9-.3 18.9.1 19.5.3.3 3.9.7 8 .7 8.2.1 18.7 1.3 25 2.9 9.8 2.5 15.3 6.1 19.4 12.9 2.5 4 2.9 9.3 4.2 57.1.4 18 .5 19.4.3 21.7 0 .7.2 19.7.5 42.3.3 22.5.7 74.6.8 115.7l.2 74.7-2.5 2.1c-15.2 13.1-14.2 12.8-43.4 14.5-3.3.2-7 .4-8.2.4-2 .1-2.1.5-1.6 4.3.3 2.4.6 7.3.7 11.1l.1 6.8 29.8-.1c16.3-.1 30.1.1 30.6.4.4.3 1.1.3 1.3 0 .3-.3 20.3-.7 44.4-.9 24.2-.3 47.2-.6 51.2-.8 4.1-.1 7.6.1 7.8.5.3.5 1.1.5 1.7.1.6-.4 8.6-.8 17.7-1 38.7-.7 48-1 48.6-1.6.4-.3 1.4-.2 2.4.3s2 .7 2.3.3c.4-.3 3.9-.7 7.9-.8 4-.1 9.8-.6 12.8-1s6.4-.9 7.5-1.1c1.1-.1 2-.3 2-.4 0-.1 1.5-.4 3.3-.7 1.8-.2 6.8-1.5 11-2.9 4.2-1.3 8.2-2.4 8.9-2.4.7 0 1.3-.5 1.3-1.1 0-.6.7-.9 1.5-.5.8.3 1.5.1 1.5-.5s.4-.8.8-.5c.4.2 2.1-.1 3.7-.9 1.7-.7 4.8-2 7.1-2.8 4.5-1.7 5.4-1.2 8.1 4.3.7 1.4 1.8 3.4 2.5 4.5s2.6 4.2 4.3 7c1.6 2.7 3.3 5.4 3.7 6 11.3 14.9 28.4 33.3 38.4 41.4 4.6 3.7 16.7 12.5 19.2 13.9 16 9.1 41.4 17.5 59.1 19.7 3 .4 6.3.8 7.4 1.1 4.7.9 19 1.7 29.2 1.8 10.8 0 31.4-1.2 32.5-1.9.3-.2 2.6-.6 5-1 19.4-2.7 38.3-10 54.4-20.8 19.8-13.3 43.8-37.2 56.1-55.7 6.2-9.4 9.1-14.7 8.7-15.8-.5-1.7-12.5-8.2-14.9-8.2-1.2 0-4.3 2.4-7.4 5.6-7.8 8.2-34.9 35.3-39 39-6.9 6.2-13.6 10.8-21.5 14.6-4.5 2.2-8.8 4-9.5 4.2-.8.1-1.8.4-2.4.8-.5.3-2.3.9-4 1.2-5.3 1.1-7.5 1.6-9.7 2.1-8.1 1.9-37.8 2.6-45.8 1.1-1.9-.3-4.8-.8-6.5-1-23.4-3.3-49.1-15.3-65-30.4-6.1-5.7-13.5-14.6-13.5-16.1 0-.6-.4-1.1-.9-1.1-1.1 0-12.3-22.7-14.1-28.5-.7-2.2-1.7-4.6-2.3-5.2-.5-.7-.6-1.3-.2-1.3.4 0 .2-.7-.5-1.5s-1-1.5-.6-1.5c.3 0 .1-1.2-.5-2.8-1.3-3.2-1.9-5.6-2.6-9.7-.3-1.7-.9-3.5-1.3-4-.4-.6-.6-2-.5-3.3.1-1.2-.1-2.2-.5-2.2s-.7-.6-.7-1.3c-.1-.6-.4-3.2-.8-5.7-.3-2.5-.8-6.8-.9-9.7-.2-2.8-.7-5.6-1-6.2-.4-.6-.2-1.1.4-1.1.7 0 .8-.6.2-1.8-.4-.9-.7-7.6-.5-14.7.1-7.2.2-14.1.2-15.5-.1-4.3-.2-3.8 1.6-19 1.1-9.8.6-9.5 12-10.6 3.9-.3 7.7-.8 8.5-.9.8-.2 4.9-.6 9-1s8.2-.8 9-1c.8-.1 3.5-.6 6-1 6.1-1 8-1.3 11.5-2.1 1.7-.4 3.7-.8 4.5-.9 2.9-.4 22.9-6.7 29-9.2.8-.3 2-.7 2.5-.8.6-.2 2.7-1 4.8-1.8 2-.9 3.8-1.6 4-1.6.1 0 3.5-1.4 7.5-3.1 10.8-4.6 12.6-5.3 13.4-5.4 1.8-.2 2-3.8 2.4-34.3.3-36.8.8-43.7 2.9-46.9 1.2-1.9 2.1-2.2 7.2-1.9 3.2.2 7 .8 8.6 1.4 1.5.6 2.7.8 2.7.6 0-.2 1.2 0 2.8.6 1.5.6 3.4 1.2 4.2 1.4 2.8.6 18.5 6.8 22 8.8 6.9 3.8 10.5 6.1 12.1 7.6.9.9 3.4 3.2 5.5 5.2 9.1 8.4 21.4 23.2 21.4 25.7 0 .7.4 1.2.8 1.2.7 0 8.8 15.7 17.8 34.5 4.5 9.3 7.4 12.1 12.9 12.4 6.5.3 7.5-1.1 7.9-11.1.1-4.6-.2-9.2-.7-10.3-.7-1.3-.6-2 .2-2.3.6-.2.8-.8.5-1.3-.3-.6-.7-3.8-.9-7.2-.2-3.4-.5-6.2-.5-6.2-.1 0-.3-2.5-.4-5.5-.6-9.4-1.7-25.3-2.1-29.5-.3-2.2-.7-7.8-1.1-12.5-.7-10.4-1.2-15.5-1.3-15.5-.1 0-.4-3.3-.6-7.4-.3-4.1-.7-8.4-.9-9.5-.2-1.2-.7-3.8-1.1-5.8-.9-4.9-2.5-6.1-8.1-6-6 .2-13.3 5-13.4 8.9 0 .7-.4 1.3-.8 1.3s-1.6 1.5-2.7 3.2c-2.4 4.2-6.3 7.7-9.4 8.5-2.4.6-11.7-1.3-13.6-2.7-.5-.5-1.2-.8-1.5-.8-1 .2-8.5-2.5-9.7-3.5-.7-.5-1.3-.6-1.3-.2 0 .4-.7.1-1.7-.6-.9-.8-1.8-1.3-2-1.1-.6.5-5.8-1.1-7.2-2.2-.8-.6-1.5-.9-1.5-.7-.1.1-2.8-.5-6.1-1.5s-6.3-1.9-6.7-2c-.5-.1-1.1-.3-1.5-.4-.5-.1-1.2-.2-1.6-.1-.4.1-1.6-.3-2.6-.9-1-.5-3.4-1.2-5.2-1.4-1.9-.3-6.5-1.2-10.4-2-3.8-.9-8.2-1.6-9.6-1.6-1.5 0-2.9-.6-3.2-1.3-.8-2.2.1-16.9 1.4-21.6 1.9-6.7 9.2-13.6 16-15 2.8-.6 5.5-.9 6-.5.5.3.9.2.9-.3 0-.4 2-.7 4.5-.6 2.5.1 4.5-.3 4.5-.8 0-.6.4-.8.9-.4.5.3 1.3-.5 1.7-1.7.9-2.9 1.4-17.8.5-17.9-.3-.1-33.6-.2-73.8-.3-64.6-.1-73.3.1-73.4 1.4-.1.8-.1 3.3-.1 5.5 0 12.5.6 13.4 8.2 14.2 16.1 1.5 17.8 1.7 20.5 2.8 1.1.4 3.4 1.4 5.2 2.1 8.8 3.5 12 10 11.7 23.9-.4 15.5-1.5 18.6-7 19.9-1.4.4-5.4 2-8.9 3.6-3.6 1.6-6.8 3-7.3 3.1-.4 0-1.2.5-1.9 1.1-.7.5-4.7 2.8-9 5-4.3 2.3-9.5 5.2-11.5 6.4-2.1 1.3-4.2 2.4-4.8 2.4-.5 0-1 .4-1 .8 0 .5-1.2 1.4-2.6 2.1-6.2 2.8-24.5 19.4-35.9 32.5-5.9 6.8-19.6 25.8-19.1 26.4.3.2-.4 1.2-1.5 2.3-1 1-1.9 2.6-1.9 3.4 0 .8-.9 1.5-1.9 1.5-2.7 0-14-4.9-17.8-7.8-2.8-2.1-3-2.6-1.8-3.8.7-.8 1.8-1.4 2.4-1.4.6 0 1.1-.4 1.1-1 0-.5 1.3-1.6 2.9-2.4 4.1-2.1 7.3-4.9 17.8-15.3 5.1-5 9.8-10.2 10.3-11.5.6-1.3 1.9-3.7 3-5.3 3.8-5.8 7.8-15.9 9.6-24.5 1.9-8.9 1.6-29.3-.7-39.5-3.6-16.6-11.1-29.8-24.9-43.5-16.9-16.9-37.4-27.7-65-34.5-11.2-2.7-12-3.2-12-7.4 0-2.1 1-6.6 2.2-10.2 2.2-6.6 10.3-22.9 13.8-27.9 1.1-1.5 2-3.3 2-3.9 0-.6.5-1.1 1.1-1.1.5 0 .8-.4.5-.9-.4-.5-.3-1.1.1-1.3.5-.1 3.3-3.5 6.3-7.3 6.8-8.8 13.5-15.1 22.7-21.5 6.7-4.6 23.3-13.5 23.3-12.4 0 .3.9 0 2.1-.6 1.1-.6 2.8-1.3 3.7-1.5.9-.2 4.2-1.1 7.2-2 3-.9 6.6-1.8 8-2 1.4-.2 4-.6 5.8-.9 3.1-.6 15.6-1.8 17.7-1.7 10.9.4 21 1.4 28.3 2.9 2.3.5 4.2.7 4.2.4 0-.2.6 0 1.3.6.6.5 2.7 1.3 4.5 1.7 1.8.4 4.5 1.3 6 2.1s3.2 1.4 3.9 1.4c.6 0 4.2 1.7 8 3.7 3.7 2 7.8 4.1 9 4.7 1.3.6 2.3 1.4 2.3 1.8 0 .4 1.4 1.5 3.1 2.4 3.2 1.6 19.9 18 19.9 19.5 0 .4.6 1.4 1.3 2.1 2.1 2.2 7.7 10.6 7.7 11.6 0 .6.4 1.2.8 1.4 1.1.4 11.2 21.1 11.2 23 0 .7 1.3 2.8 2.9 4.6 3 3.3 4.8 3.7 13.1 3.2 6.5-.4 6.9-1 6.5-10.3-.5-8.8-.9-14.7-1.9-24.2-.4-3.3-.9-9.2-1.1-13-.3-3.9-.7-8.8-1-11-.3-2.2-.7-6.9-1-10.5-.2-3.6-.6-8.3-.9-10.5-.3-2.2-.8-7.2-1.2-11-1.1-11.4-1.2-12.8-1.8-17.8-.3-2.6-.7-5.1-1-5.5-.2-.4-4.6-.5-9.7-.2l-9.2.5-2.3 6.9c-1.3 3.7-2.9 7.5-3.5 8.2-1.2 1.5-9.6 1.7-10.5.3-.2-.5-1.1-.6-1.8-.3-.8.3-1.7.1-2-.5-.4-.6-1.3-.8-2.1-.4-.8.3-1.5.1-1.5-.5s-.8-.9-1.7-.8c-1 .2-3.3-.3-5-1.1-1.8-.7-3.6-1.4-4-1.4-.5-.1-1.2-.3-1.8-.5-1.5-.5-12.1-3.4-20.5-5.5-13.4-3.4-16.5-3.8-32-4.5-6.9-.3-14.4-.6-16.7-.8-2.4-.1-4.4-.2-4.5-.1zM417.4 380.7c-1.5 15.8-.5 45.1 2 58.8 2.4 13.2 12.2 41.3 14.8 42.3.4.2.8 1.2.8 2.3 0 1 .5 1.9 1 1.9.6 0 1 .5 1 1.2 0 .6 2 4.5 4.4 8.7 7.1 12.4 9.6 17.1 9.6 17.9 0 .5-3.6.8-8 .8-4.4-.1-8 .2-8 .6 0 .4-1.3.3-2.9-.2-1.5-.4-3.4-.4-4.2 0-.7.5-1.7.6-2.3.3-.5-.4-5.3-.7-10.5-.9-15.2-.3-29.9-1.6-34-2.9-2.5-.8-3.1-2.5-3.9-11-.8-8.8-.8-77.1.1-100.5.3-9.6.6-18.7.6-20.1.1-2.2.7-2.8 3.4-3.3 5.5-1.1 14-2 19.4-2.1 2.9 0 5.3-.2 5.3-.5s2.7-.6 6.1-.8l6.1-.3-.8 7.8zm79.9 12.1c1.5 1.4 2.7 2.2 2.7 1.8 0-.4 3.2 2.5 7 6.5 3.9 3.9 7 7.5 7 8 0 .4.7 1.4 1.5 2.2 1.6 1.7 6.8 12.7 8 17.2.5 1.6.9 3.2 1 3.5 1.5 4.8 2.3 22 1.2 25-.3.8-.8 3.2-1.1 5.2-.7 4.9-7.3 21.1-9.8 24.3-1.7 2.2-2.3 2.4-3.5 1.3-1.6-1.3-8.3-14.9-8.3-16.8 0-.6-.5-1-1.2-1-.6 0-.9-.3-.6-.6.4-.3-.7-4.1-2.3-8.4-2.6-7.3-6.8-21.4-7.3-25-.2-.8-.6-3.3-.9-5.5-1.5-9.1-1.9-13.4-2.2-25.3-.2-6.8 0-13.5.6-14.8.8-2.2 1.1-2.3 3.1-1.3 1.3.6 3.5 2.3 5.1 3.7zm188.8 96.9c.1 1.6.2 13.3.4 26.1.2 22.8.2 23.4-1.9 24.7-2.3 1.4-33.5 12.1-37.6 12.8-1.4.3-3.7.8-5.2 1.2-1.5.4-3.6.4-4.8 0-1.9-.6-2.1-1.2-1.7-4.2.8-4.5 7.6-17.9 13.3-26.1 2.4-3.5 4.4-6.5 4.4-6.8 0-1.6 20.1-23.4 21.6-23.4.4 0 1.4-.8 2.3-1.8 2.2-2.3 6.3-5.1 7.9-5.1.6-.1 1.2 1.1 1.3 2.6zM435 547.4c1.9.2 6.2.7 9.5 1.1 6.3.7 9.4 1.1 13.5 2 1.4.3 3.9.7 5.5.9 3.9.5 16.4 3.9 23.5 6.4 4.8 1.7 7.7 3 18.7 8.6 1.3.6 2.3 1.4 2.3 1.8 0 .5.5.8 1 .8.9 0 4.2 2.6 9.5 7.5 3.6 3.4 9.8 11.5 12.1 15.8 7.3 13.6 9.2 21.4 8.9 36.6-.3 13.6-2.4 21.1-8.5 30-4.4 6.4-14.4 17.1-16 17.1-.6 0-.8.4-.5 1 .3.5.1 1-.4 1-.6 0-1.9.8-2.9 1.8-2.2 2.2-16 10.2-17.6 10.2-.7 0-1.6.4-2.1.9-1.6 1.5-13.2 4.2-21.4 4.9-10.2.9-68.1.9-75.6 0-10.9-1.3-15.5-2.1-15.6-2.7-.4-2.8-.3-144.1.1-144.2.3 0 2.3-.2 4.5-.4 19.4-1.3 24-1.7 24.3-2 .4-.4 22.4.4 27.2.9z"/></svg>